<?xml version="1.0" encoding="UTF-8" standalone="no"?>
<!-- Created with Inkscape (http://www.inkscape.org/) -->

<svg
   xmlns:dc="http://purl.org/dc/elements/1.1/"
   xmlns:cc="http://creativecommons.org/ns#"
   xmlns:rdf="http://www.w3.org/1999/02/22-rdf-syntax-ns#"
   xmlns:svg="http://www.w3.org/2000/svg"
   xmlns="http://www.w3.org/2000/svg"
   version="1.1"
   width="32"
   height="32"
   id="svg3695">
  <defs
     id="defs3697" />
  <metadata
     id="metadata3700">
    <rdf:RDF>
      <cc:Work
         rdf:about="">
        <dc:format>image/svg+xml</dc:format>
        <dc:type
           rdf:resource="http://purl.org/dc/dcmitype/StillImage" />
        <dc:title></dc:title>
      </cc:Work>
    </rdf:RDF>
  </metadata>
  <g
     id="layer1">
    <g
       transform="matrix(0.21766521,0,0,0.21766521,0.40326453,-37.02883)"
       id="g358">
      <path
         d="m 86.249,234.163 c -1.816,-2.918 2.848,-9.666 8.21,-13.041 5.363,-3.372 19.237,-13.306 15.737,-26.108 -3.502,-12.804 -15.173,-17.072 -21.986,-15.578 -9.505,2.084 -17.58,9.652 -17.585,20.53 -0.006,10.879 5.5,18.112 3.724,21.349 -1.776,3.237 -7.192,7.986 -9.868,-1.204 -2.677,-9.191 2.5,-25.653 -6.496,-31.644 -8.996,-5.991 -21.047,-7.693 -27.711,4.443 -6.661,12.139 -3.132,24.251 4.176,27.563 7.31,3.31 24.279,9.336 19.731,14.875 -3.891,4.737 -8.517,5.466 -10.473,0.779 -3.127,-7.495 -15.971,-13.019 -26.952,-10.274 -10.982,2.744 -18.587,18.33 -16.37,25.161 2.216,6.834 11.771,22.854 28.831,16.073 17.062,-6.781 12.452,-19.487 21.18,-13.645 8.727,5.842 2.989,11.818 -0.771,12.914 -3.759,1.094 -23.055,8.754 -20.293,22.904 2.761,14.152 10.487,17.338 17.012,19.517 6.529,2.181 24.13,2.717 27.368,-13.408 3.234,-16.122 -12.356,-26.083 -3.799,-30.163 8.555,-4.078 11.094,1.526 8.697,6.531 -2.394,5.002 -2.094,21.98 2.203,29.448 5.909,10.274 26.979,13.521 36.468,-0.57 9.489,-14.093 2.162,-27.174 -8.627,-33.096 -10.788,-5.922 -26.008,-7.607 -20.07,-15.228 5.937,-7.621 16.982,5.735 21.565,8.253 8.876,4.871 22.994,3.923 30.084,-12.192 7.09,-16.114 -2.399,-30.799 -14.625,-31.544 -12.227,-0.745 -24.525,7.597 -27.539,14.366 -3.016,6.77 -8.841,7.785 -11.821,2.989 z"
         id="path360"
         style="fill:#19265e" />
      <path
         d="m 79.142,229.987 c -2.796,-1.572 -2.01,-9.186 0.861,-14.354 2.872,-5.167 9.762,-19.521 1.149,-28.421 -8.613,-8.9 -20.075,-7.152 -24.978,-2.872 -6.84,5.973 -10.047,15.789 -5.167,24.688 4.88,8.9 12.632,12.346 12.632,15.791 0,3.444 -2.298,9.761 -8.613,3.444 -6.315,-6.317 -9.473,-22.104 -19.521,-22.966 -10.049,-0.861 -20.67,3.157 -20.67,16.076 0,12.919 8.324,21.243 15.789,20.671 7.465,-0.575 24.05,-3.264 22.817,3.308 -1.054,5.622 -4.512,8.296 -8.215,5.34 -5.924,-4.728 -18.908,-3.479 -26.66,3.697 -7.751,7.175 -6.973,23.337 -2.092,27.93 4.881,4.596 19.889,13.409 30.8,0.203 10.91,-13.207 1.435,-21.53 11.196,-20.67 9.762,0.861 7.752,8.324 5.168,10.908 -2.584,2.584 -14.928,17.513 -6.314,27.848 8.611,10.336 16.361,9.473 22.678,8.325 6.317,-1.148 20.956,-8.612 16.364,-23.254 -4.593,-14.641 -21.817,-15.788 -16.65,-22.966 5.167,-7.178 9.761,-3.732 10.048,1.436 0.288,5.166 8.156,18.921 15.021,23.1 9.447,5.75 28.139,-1.053 29.574,-16.841 1.435,-15.788 -10.432,-23.197 -21.916,-23.197 -11.484,0 -24.688,5.455 -23.254,-3.444 1.436,-8.9 16.466,-2.932 21.347,-2.932 9.447,0 20.569,-7.115 19.132,-23.479 -1.436,-16.364 -15.789,-24.115 -26.125,-19.235 -10.335,4.88 -16.649,17.225 -16.075,24.115 0.574,6.889 -3.734,10.335 -8.326,7.751 z"
         id="path362"
         style="fill:#37529c" />
      <circle
         cx="71.515999"
         cy="245.76401"
         r="16.117001"
         id="circle364"
         style="fill:#ffffff" />
      <circle
         cx="71.791"
         cy="246.175"
         r="13.144"
         id="circle366"
         style="fill:#f4d9c4" />
    </g>
  </g>
</svg>
