<?xml version="1.0" encoding="UTF-8" standalone="no"?>
<!-- Created with Inkscape (http://www.inkscape.org/) -->

<svg
   xmlns:dc="http://purl.org/dc/elements/1.1/"
   xmlns:cc="http://creativecommons.org/ns#"
   xmlns:rdf="http://www.w3.org/1999/02/22-rdf-syntax-ns#"
   xmlns:svg="http://www.w3.org/2000/svg"
   xmlns="http://www.w3.org/2000/svg"
   version="1.1"
   width="32"
   height="32"
   id="svg3695">
  <defs
     id="defs3697" />
  <metadata
     id="metadata3700">
    <rdf:RDF>
      <cc:Work
         rdf:about="">
        <dc:format>image/svg+xml</dc:format>
        <dc:type
           rdf:resource="http://purl.org/dc/dcmitype/StillImage" />
        <dc:title></dc:title>
      </cc:Work>
    </rdf:RDF>
  </metadata>
  <g
     id="layer1">
    <g
       transform="matrix(0.19139723,0,0,0.19139723,-35.968935,-30.763077)"
       id="g326">
      <polygon
         points="351.922,270.231 310.043,262.157 342.959,289.28 304.404,271.044 329.541,305.5 296.73,278.25 312.508,317.875 287.504,283.321 292.934,325.625 277.31,285.94 272.047,328.264 266.784,285.94 251.161,325.625 256.588,283.321 231.586,317.875 247.364,278.25 214.554,305.5 239.69,271.044 201.134,289.28 234.05,262.157 192.171,270.231 230.797,252.146 188.226,249.55 230.136,241.641 189.548,228.54 232.109,231.299 196.054,208.516 236.59,221.776 207.333,190.741 243.3,213.664 222.681,176.329 251.816,207.478 241.129,166.187 261.603,203.602 261.521,160.952 272.047,202.283 282.573,160.952 282.491,203.602 302.965,166.187 292.279,207.478 321.414,176.329 300.793,213.664 336.76,190.741 307.504,221.776 348.042,208.516 311.985,231.299 354.545,228.54 313.958,241.641 355.869,249.55 313.296,252.146 "
         id="polygon328"
         style="fill:#fbc13d" />
      <polygon
         points="346.424,239.536 308.934,247.449 345.643,258.434 307.362,256.772 340.186,276.542 303.52,265.416 330.396,292.725 297.65,272.829 316.889,305.965 290.121,278.553 300.516,315.432 281.404,282.221 282.301,320.526 272.049,283.606 263.392,320.934 262.643,282.625 244.974,316.624 253.778,279.333 228.208,307.868 246.01,273.938 214.146,295.221 239.827,266.783 203.672,279.471 235.617,258.314 197.442,261.613 233.647,249.063 195.85,242.767 234.037,239.616 198.994,224.118 236.767,230.56 206.679,206.834 241.662,222.47 218.419,192.005 248.415,215.849 233.479,180.563 256.602,211.117 250.912,173.225 265.708,208.567 269.62,170.45 275.164,208.366 288.43,172.417 284.373,210.52 306.163,179.003 292.756,214.897 321.7,189.789 299.786,221.221 334.065,204.1 305.025,229.095 342.484,221.036 308.138,238.026 "
         id="polygon330"
         style="fill:#f8d02f" />
      <circle
         cx="272.048"
         cy="246.57401"
         r="31.691"
         id="circle332"
         style="fill:#532d12;stroke:#ffffff" />
      <circle
         cx="272.047"
         cy="246.57401"
         r="23.878"
         id="circle334"
         style="fill:#664432" />
      <circle
         cx="272.047"
         cy="247.328"
         r="18.108999"
         id="circle336" />
    </g>
  </g>
</svg>
