<?xml version="1.0" encoding="UTF-8" standalone="no"?>
<!-- Created with Inkscape (http://www.inkscape.org/) -->

<svg
   xmlns:dc="http://purl.org/dc/elements/1.1/"
   xmlns:cc="http://creativecommons.org/ns#"
   xmlns:rdf="http://www.w3.org/1999/02/22-rdf-syntax-ns#"
   xmlns:svg="http://www.w3.org/2000/svg"
   xmlns="http://www.w3.org/2000/svg"
   xmlns:sodipodi="http://sodipodi.sourceforge.net/DTD/sodipodi-0.dtd"
   xmlns:inkscape="http://www.inkscape.org/namespaces/inkscape"
   width="32px"
   height="32px"
   id="svg3695"
   version="1.1"
   inkscape:version="0.48.5 r10040"
   sodipodi:docname="新建文档 1">
  <defs
     id="defs3697" />
  <sodipodi:namedview
     id="base"
     pagecolor="#ffffff"
     bordercolor="#666666"
     borderopacity="1.0"
     inkscape:pageopacity="0.0"
     inkscape:pageshadow="2"
     inkscape:zoom="5.598901"
     inkscape:cx="20.439019"
     inkscape:cy="11.131727"
     inkscape:current-layer="layer1"
     showgrid="true"
     inkscape:grid-bbox="true"
     inkscape:document-units="px"
     inkscape:window-width="548"
     inkscape:window-height="431"
     inkscape:window-x="576"
     inkscape:window-y="146"
     inkscape:window-maximized="0" />
  <metadata
     id="metadata3700">
    <rdf:RDF>
      <cc:Work
         rdf:about="">
        <dc:format>image/svg+xml</dc:format>
        <dc:type
           rdf:resource="http://purl.org/dc/dcmitype/StillImage" />
        <dc:title></dc:title>
      </cc:Work>
    </rdf:RDF>
  </metadata>
  <g
     id="layer1"
     inkscape:label="Layer 1"
     inkscape:groupmode="layer">
    <g
       transform="matrix(0.2286864,0,0,0.2286864,-47.531731,-1.6432678)"
       id="g306">
      <path
         style="fill:#93b2da"
         inkscape:connector-curvature="0"
         d="m 250.737,54.687 c 0,0 -34.186,-15.177 -40.274,7.654 -3.526,13.223 3.413,26.481 8.625,30.948 5.212,4.466 16.762,10.528 16.762,10.528 0,0 -12.772,15.139 -4.585,28.538 8.187,13.399 36.021,13.698 41.805,4.96 6.801,-10.275 10.42,-20.099 10.42,-20.099 0,0 13.146,20.62 32.503,16.153 19.357,-4.466 25.561,-17.643 25.561,-27.319 0,-9.676 -17.119,-21.588 -17.119,-21.588 0,0 23.077,-7.442 23.077,-23.82 0,-16.378 -8.688,-25.699 -23.824,-25.312 -13.902,0.355 -26.052,11.91 -26.052,15.632 0,3.723 1.65,-22.274 -8.024,-29.718 -9.675,-7.443 -23.846,-12.177 -35.153,-1.546 -8.472,7.964 -11.167,26.055 -3.722,34.989 z"
         id="path308" />
      <path
         style="fill:#c9e3f5"
         inkscape:connector-curvature="0"
         d="m 259.387,63.419 c 0,0 -23.88,-10.602 -28.133,5.346 -2.464,9.237 2.384,18.499 6.024,21.619 3.641,3.119 11.709,7.354 11.709,7.354 0,0 -8.922,10.575 -3.203,19.936 5.719,9.36 25.163,9.569 29.203,3.465 4.75,-7.178 7.278,-14.04 7.278,-14.04 0,0 9.183,14.404 22.705,11.284 13.521,-3.12 17.855,-12.324 17.855,-19.083 0,-6.76 -11.959,-15.081 -11.959,-15.081 0,0 16.12,-5.198 16.12,-16.639 0,-11.441 -6.068,-17.952 -16.642,-17.682 -9.712,0.249 -18.199,8.32 -18.199,10.92 0,2.601 1.154,-15.56 -5.605,-20.76 -6.758,-5.199 -16.657,-8.505 -24.556,-1.08 -5.916,5.564 -7.798,18.201 -2.597,24.441 z"
         id="path310" />
      <circle
         style="fill:#ffffff"
         sodipodi:ry="4.8200002"
         sodipodi:rx="4.8200002"
         sodipodi:cy="74.010002"
         sodipodi:cx="240.397"
         d="m 245.217,74.010002 c 0,2.662013 -2.15798,4.82 -4.82,4.82 -2.66201,0 -4.82,-2.157987 -4.82,-4.82 0,-2.662012 2.15799,-4.82 4.82,-4.82 2.66202,0 4.82,2.157988 4.82,4.82 z"
         cx="240.397"
         cy="74.010002"
         r="4.8200002"
         id="circle312" />
      <circle
         style="fill:#ffffff"
         sodipodi:ry="4.8200002"
         sodipodi:rx="4.8200002"
         sodipodi:cy="45.598"
         sodipodi:cx="272.86801"
         d="m 277.68801,45.598 c 0,2.662012 -2.15799,4.82 -4.82,4.82 -2.66201,0 -4.82,-2.157988 -4.82,-4.82 0,-2.662013 2.15799,-4.820001 4.82,-4.820001 2.66201,0 4.82,2.157988 4.82,4.820001 z"
         cx="272.86801"
         cy="45.598"
         r="4.8200002"
         id="circle314" />
      <circle
         style="fill:#ffffff"
         sodipodi:ry="4.8200002"
         sodipodi:rx="4.8200002"
         sodipodi:cy="61.833"
         sodipodi:cx="317.00699"
         d="m 321.82699,61.833 c 0,2.662013 -2.15799,4.82 -4.82,4.82 -2.66201,0 -4.82,-2.157987 -4.82,-4.82 0,-2.662012 2.15799,-4.82 4.82,-4.82 2.66201,0 4.82,2.157988 4.82,4.82 z"
         cx="317.00699"
         cy="61.833"
         r="4.8200002"
         id="circle316" />
      <circle
         style="fill:#ffffff"
         sodipodi:ry="4.8200002"
         sodipodi:rx="4.8200002"
         sodipodi:cy="106.988"
         sodipodi:cx="306.85999"
         d="m 311.67999,106.988 c 0,2.66201 -2.15799,4.82 -4.82,4.82 -2.66202,0 -4.82,-2.15799 -4.82,-4.82 0,-2.66201 2.15798,-4.82 4.82,-4.82 2.66201,0 4.82,2.15799 4.82,4.82 z"
         cx="306.85999"
         cy="106.988"
         r="4.8200002"
         id="circle318" />
      <circle
         style="fill:#ffffff"
         sodipodi:ry="4.8200002"
         sodipodi:rx="4.8200002"
         sodipodi:cy="115.613"
         sodipodi:cx="257.647"
         d="m 262.467,115.613 c 0,2.66201 -2.15798,4.82 -4.82,4.82 -2.66201,0 -4.82,-2.15799 -4.82,-4.82 0,-2.66201 2.15799,-4.82 4.82,-4.82 2.66202,0 4.82,2.15799 4.82,4.82 z"
         cx="257.647"
         cy="115.613"
         r="4.8200002"
         id="circle320" />
      <circle
         style="fill:#ffcf09"
         sodipodi:ry="17.878"
         sodipodi:rx="17.878"
         sodipodi:cy="80.098"
         sodipodi:cx="279.46301"
         d="m 297.34101,80.098 c 0,9.873746 -8.00425,17.878 -17.878,17.878 -9.87374,0 -17.878,-8.004254 -17.878,-17.878 0,-9.873747 8.00426,-17.878001 17.878,-17.878001 9.87375,0 17.878,8.004254 17.878,17.878001 z"
         cx="279.46301"
         cy="80.098"
         r="17.878"
         id="circle322" />
      <circle
         style="fill:#ffe36b"
         sodipodi:ry="14.206"
         sodipodi:rx="14.206"
         sodipodi:cy="80.098"
         sodipodi:cx="279.802"
         d="m 294.008,80.098 c 0,7.845757 -6.36024,14.206 -14.206,14.206 -7.84576,0 -14.206,-6.360243 -14.206,-14.206 0,-7.845758 6.36024,-14.206001 14.206,-14.206001 7.84576,0 14.206,6.360243 14.206,14.206001 z"
         cx="279.802"
         cy="80.098"
         r="14.206"
         id="circle324" />
    </g>
  </g>
</svg>
