<?xml version="1.0" encoding="UTF-8" standalone="no"?>
<!-- Created with Inkscape (http://www.inkscape.org/) -->

<svg
   xmlns:dc="http://purl.org/dc/elements/1.1/"
   xmlns:cc="http://creativecommons.org/ns#"
   xmlns:rdf="http://www.w3.org/1999/02/22-rdf-syntax-ns#"
   xmlns:svg="http://www.w3.org/2000/svg"
   xmlns="http://www.w3.org/2000/svg"
   version="1.1"
   width="32"
   height="32"
   id="svg3695">
  <defs
     id="defs3697" />
  <metadata
     id="metadata3700">
    <rdf:RDF>
      <cc:Work
         rdf:about="">
        <dc:format>image/svg+xml</dc:format>
        <dc:type
           rdf:resource="http://purl.org/dc/dcmitype/StillImage" />
        <dc:title></dc:title>
      </cc:Work>
    </rdf:RDF>
  </metadata>
  <g
     id="layer1">
    <g
       transform="matrix(0.1835878,0,0,0.1835878,-36.600443,-64.147381)"
       id="g560">
      <g
         id="g562">
        <path
           d="m 280.483,434.059 c 0,0 42,-8 58,-41 16,-33 -8,-28 -19,-20 -11,8 -32,30 -39,61 z"
           id="path564"
           style="fill:#f8e823" />
        <path
           d="m 282.111,434.977 c 0,0 33.78,26.21 69.113,16.382 35.333,-9.827 15.708,-24.521 2.432,-27.479 -13.276,-2.959 -43.665,-4.157 -71.545,11.097 z"
           id="path566"
           style="fill:#f8e823" />
        <path
           d="m 280.297,431.467 c 0,0 -1.23,42.738 27.551,65.467 28.782,22.729 29.066,-1.784 23.622,-14.25 -5.444,-12.463 -22.407,-37.706 -51.173,-51.217 z"
           id="path568"
           style="fill:#f8e823" />
        <path
           d="m 280.716,433.753 c 0,0 -32.288,28.027 -29.533,64.597 2.755,36.571 20.989,20.186 26.479,7.739 5.488,-12.443 12.584,-42.016 3.054,-72.336 z"
           id="path570"
           style="fill:#f8e823" />
        <path
           d="m 285.156,432.663 c 0,0 -41.895,-8.539 -69.221,15.918 -27.329,24.458 -3.228,28.94 9.987,25.715 13.213,-3.226 40.991,-15.609 59.234,-41.633 z"
           id="path572"
           style="fill:#f8e823" />
        <path
           d="m 285.581,442.015 c 0,0 -15.134,-39.988 -50.399,-50.048 -35.269,-10.061 -26.198,12.715 -16.418,22.169 9.778,9.453 35.072,26.337 66.817,27.879 z"
           id="path574"
           style="fill:#f8e823" />
        <path
           d="m 279.876,442.428 c 0,0 21.316,-37.064 6.725,-70.709 -14.591,-33.647 -26.445,-12.189 -27.552,1.369 -1.106,13.555 1.885,43.821 20.827,69.34 z"
           id="path576"
           style="fill:#f8e823" />
      </g>
      <g
         id="g578">
        <path
           d="m 281.876,453.428 c 0,0 21.316,-37.064 6.725,-70.709 -14.591,-33.647 -26.445,-12.189 -27.552,1.369 -1.106,13.555 1.885,43.821 20.827,69.34 z"
           id="path580"
           style="fill:#f7b726" />
        <path
           d="m 273.334,439.933 c 0,0 42.255,-6.53 59.396,-38.951 17.142,-32.423 -7.017,-28.262 -18.292,-20.65 -11.271,7.61 -33.025,28.864 -41.104,59.601 z"
           id="path582"
           style="fill:#f7b726" />
        <path
           d="m 273.083,438.373 c 0,0 34.561,25.173 69.578,14.278 35.02,-10.895 14.958,-24.983 1.597,-27.54 -13.358,-2.555 -43.77,-2.83 -71.175,13.262 z"
           id="path584"
           style="fill:#f7b726" />
        <path
           d="m 274.301,426.16 c 0,0 -0.104,42.757 29.266,64.719 29.371,21.964 29.008,-2.548 23.237,-14.867 -5.769,-12.316 -23.391,-37.103 -52.503,-49.852 z"
           id="path586"
           style="fill:#f7b726" />
        <path
           d="m 282.069,424.605 c 0,0 -31.883,28.489 -28.602,65.015 3.281,36.528 21.276,19.882 26.587,7.357 5.309,-12.521 11.979,-42.193 2.015,-72.372 z"
           id="path588"
           style="fill:#f7b726" />
        <path
           d="m 294.635,429.767 c 0,0 -41.658,-9.634 -69.614,14.1 -27.959,23.736 -3.983,28.847 9.312,25.968 13.292,-2.879 41.383,-14.532 60.302,-40.068 z"
           id="path590"
           style="fill:#f7b726" />
        <path
           d="m 296.532,442.781 c 0,0 -18.358,-38.615 -54.329,-45.752 -35.975,-7.137 -25.068,14.817 -14.547,23.439 10.519,8.62 37.113,23.375 68.876,22.313 z"
           id="path592"
           style="fill:#f7b726" />
      </g>
      <g
         id="g594">
        <path
           d="m 274.805,445.602 c 0,0 31.648,-19.058 34.738,-50.592 3.091,-31.538 -14.864,-20.301 -21.387,-10.522 -6.521,9.774 -16.956,33.891 -13.351,61.114 z"
           id="path596"
           style="fill:#f08811" />
        <path
           d="m 274.013,431.826 c 0,0 34.658,12.79 61.205,-4.512 26.548,-17.301 6.555,-24.291 -5.156,-23.271 -11.706,1.022 -37.054,7.953 -56.049,27.783 z"
           id="path598"
           style="fill:#f08811" />
        <path
           d="m 274.477,430.542 c 0,0 15.549,33.511 46.57,39.97 31.023,6.458 21.779,-12.599 12.758,-20.135 -9.018,-7.532 -31.876,-20.497 -59.328,-19.835 z"
           id="path600"
           style="fill:#f08811" />
        <path
           d="m 280.521,421.827 c 0,0 -18.013,32.255 -5.038,61.163 12.974,28.911 22.98,10.243 23.789,-1.484 0.807,-11.722 -2.107,-37.839 -18.751,-59.679 z"
           id="path602"
           style="fill:#f08811" />
        <path
           d="m 287.041,423.91 c 0,0 -36.034,8.147 -48.875,37.115 -12.843,28.971 7.732,23.943 16.997,16.71 9.263,-7.233 26.746,-26.849 31.878,-53.825 z"
           id="path604"
           style="fill:#f08811" />
        <path
           d="m 294.368,433.081 c 0,0 -27.428,-24.75 -58.5,-18.548 -31.076,6.203 -15.108,20.119 -3.858,23.521 11.248,3.401 37.356,6.381 62.358,-4.973 z"
           id="path606"
           style="fill:#f08811" />
        <path
           d="m 290.342,443.707 c 0,0 2.329,-36.87 -21.851,-57.349 -24.182,-20.479 -25.151,0.679 -20.819,11.604 4.331,10.925 18.231,33.224 42.67,45.745 z"
           id="path608"
           style="fill:#f08811" />
      </g>
      <g
         id="g610">
        <path
           d="m 278.269,440.86 c 0,0 22.585,-7.911 28.703,-27.503 6.12,-19.594 -6.749,-14.835 -12.175,-9.494 -5.425,5.338 -15.224,19.258 -16.528,36.997 z"
           id="path612"
           style="fill:#ce171c" />
        <path
           d="m 279.583,432.019 c 0,0 20.295,12.682 39.412,5.211 19.118,-7.471 7.36,-14.541 -0.201,-15.438 -7.558,-0.896 -24.548,0.156 -39.211,10.227 z"
           id="path614"
           style="fill:#ce171c" />
        <path
           d="m 280.047,431.265 c 0,0 5.441,23.304 24.263,31.491 18.823,8.188 15.474,-5.118 10.746,-11.086 -4.725,-5.966 -17.512,-17.204 -35.009,-20.405 z"
           id="path616"
           style="fill:#ce171c" />
        <path
           d="m 285.03,426.536 c 0,0 -15.678,18.08 -11.263,38.124 4.415,20.048 13.224,9.528 15.283,2.197 2.058,-7.327 3.655,-24.275 -4.02,-40.321 z"
           id="path618"
           style="fill:#ce171c" />
        <path
           d="m 288.89,428.716 c 0,0 -23.928,0.414 -35.893,17.092 -11.965,16.68 1.746,16.205 8.576,12.84 6.829,-3.365 20.504,-13.5 27.317,-29.932 z"
           id="path620"
           style="fill:#ce171c" />
        <path
           d="m 292.327,435.5 c 0,0 -14.13,-19.314 -34.654,-19.479 -20.526,-0.164 -12.235,10.767 -5.549,14.408 6.684,3.64 22.849,8.974 40.203,5.071 z"
           id="path622"
           style="fill:#ce171c" />
        <path
           d="m 288.373,441.707 c 0,0 6.34,-23.075 -6.294,-39.252 -12.635,-16.178 -16.04,-2.886 -14.734,4.613 1.306,7.5 7.18,23.474 21.028,34.639 z"
           id="path624"
           style="fill:#ce171c" />
      </g>
      <g
         id="g626">
        <path
           d="m 277.931,434.074 c 0,0 15.358,3.432 25.582,-5.381 10.225,-8.812 1.387,-10.627 -3.499,-9.531 -4.883,1.095 -15.19,5.462 -22.083,14.912 z"
           id="path628"
           style="fill:#f7b726" />
        <path
           d="m 281.737,429.595 c 0,0 6.924,14.131 20.191,16.604 13.271,2.472 9.163,-5.561 5.253,-8.689 -3.909,-3.127 -13.758,-8.444 -25.444,-7.915 z"
           id="path630"
           style="fill:#f7b726" />
        <path
           d="m 282.258,429.335 c 0,0 -5.06,14.9 2.604,26.012 7.664,11.112 10.417,2.52 9.852,-2.455 -0.566,-4.973 -3.799,-15.689 -12.456,-23.557 z"
           id="path632"
           style="fill:#f7b726" />
        <path
           d="m 286.684,428.426 c 0,0 -15.035,4.646 -19.535,17.37 -4.502,12.728 4.071,9.914 7.768,6.538 3.695,-3.376 10.476,-12.283 11.767,-23.908 z"
           id="path634"
           style="fill:#f7b726" />
        <path
           d="m 288.08,430.985 c 0,0 -13.501,-8.083 -25.977,-2.93 -12.475,5.154 -4.655,9.653 0.327,10.147 4.982,0.496 16.137,-0.411 25.65,-7.217 z"
           id="path636"
           style="fill:#f7b726" />
        <path
           d="m 287.642,435.965 c 0,0 -1.177,-15.691 -12.578,-22.917 -11.402,-7.224 -10.571,1.76 -8.104,6.117 2.467,4.355 9.638,12.951 20.682,16.8 z"
           id="path638"
           style="fill:#f7b726" />
        <path
           d="m 283.279,438.057 c 0,0 11.557,-10.68 10.125,-24.101 -1.433,-13.422 -7.952,-7.185 -9.829,-2.545 -1.877,4.643 -4.149,15.601 -0.296,26.646 z"
           id="path640"
           style="fill:#f7b726" />
      </g>
      <g
         id="g642">
        <path
           d="m 282.596,432.25 c 0,0 3.616,0.809 6.023,-1.267 2.407,-2.074 0.326,-2.502 -0.824,-2.244 -1.149,0.258 -3.576,1.286 -5.199,3.511 z"
           id="path644"
           style="fill:#ce171c" />
        <path
           d="m 283.493,431.196 c 0,0 1.63,3.326 4.754,3.908 3.124,0.582 2.157,-1.309 1.236,-2.045 -0.92,-0.736 -3.239,-1.988 -5.99,-1.863 z"
           id="path646"
           style="fill:#ce171c" />
        <path
           d="m 283.616,431.134 c 0,0 -1.191,3.508 0.612,6.124 1.805,2.616 2.453,0.593 2.319,-0.578 -0.132,-1.171 -0.894,-3.693 -2.931,-5.546 z"
           id="path648"
           style="fill:#ce171c" />
        <path
           d="m 284.658,430.92 c 0,0 -3.54,1.094 -4.6,4.089 -1.06,2.997 0.959,2.334 1.829,1.54 0.87,-0.795 2.466,-2.892 2.771,-5.629 z"
           id="path650"
           style="fill:#ce171c" />
        <path
           d="m 284.986,431.523 c 0,0 -3.179,-1.903 -6.115,-0.69 -2.938,1.214 -1.097,2.273 0.077,2.39 1.172,0.115 3.799,-0.098 6.038,-1.7 z"
           id="path652"
           style="fill:#ce171c" />
        <path
           d="m 284.883,432.695 c 0,0 -0.277,-3.694 -2.962,-5.395 -2.685,-1.701 -2.488,0.414 -1.907,1.439 0.58,1.026 2.269,3.05 4.869,3.956 z"
           id="path654"
           style="fill:#ce171c" />
        <path
           d="m 283.856,433.188 c 0,0 2.721,-2.515 2.384,-5.675 -0.338,-3.159 -1.872,-1.691 -2.314,-0.599 -0.442,1.093 -0.977,3.673 -0.07,6.274 z"
           id="path656"
           style="fill:#ce171c" />
      </g>
    </g>
  </g>
</svg>
