<?xml version="1.0" encoding="UTF-8" standalone="no"?>
<!-- Created with Inkscape (http://www.inkscape.org/) -->

<svg
   xmlns:dc="http://purl.org/dc/elements/1.1/"
   xmlns:cc="http://creativecommons.org/ns#"
   xmlns:rdf="http://www.w3.org/1999/02/22-rdf-syntax-ns#"
   xmlns:svg="http://www.w3.org/2000/svg"
   xmlns="http://www.w3.org/2000/svg"
   version="1.1"
   width="32"
   height="32"
   id="svg3770">
  <defs
     id="defs3772" />
  <metadata
     id="metadata3775">
    <rdf:RDF>
      <cc:Work
         rdf:about="">
        <dc:format>image/svg+xml</dc:format>
        <dc:type
           rdf:resource="http://purl.org/dc/dcmitype/StillImage" />
        <dc:title></dc:title>
      </cc:Work>
    </rdf:RDF>
  </metadata>
  <g
     id="layer1">
    <g
       transform="matrix(0.20072363,0,0,0.20072363,-0.4711295,0.50832858)"
       id="g338">
      <path
         d="M 91.822,59.845 C 88.419,57.93 89.375,48.663 92.87,42.372 96.366,36.082 104.753,18.609 94.269,7.775 83.785,-3.059 69.833,-0.931 63.865,4.28 c -8.326,7.271 -12.23,19.219 -6.29,30.053 5.94,10.834 15.376,15.028 15.376,19.222 0,4.193 -2.797,11.882 -10.484,4.193 C 54.78,50.059 50.936,30.84 38.704,29.792 26.472,28.744 13.543,33.635 13.543,49.361 c 0,15.726 10.134,25.86 19.22,25.162 9.086,-0.698 29.276,-3.972 27.776,4.028 -1.283,6.843 -5.492,10.097 -10,6.5 -7.211,-5.755 -23.018,-4.235 -32.454,4.5 -9.436,8.735 -8.488,28.409 -2.546,34 5.941,5.593 24.211,16.322 37.492,0.246 13.281,-16.076 1.747,-26.209 13.63,-25.161 11.882,1.048 9.436,10.134 6.29,13.279 -3.146,3.145 -18.171,21.317 -7.687,33.898 10.483,12.581 19.917,11.53 27.605,10.134 7.689,-1.396 25.51,-10.483 19.92,-28.307 -5.59,-17.823 -26.558,-19.219 -20.268,-27.957 6.29,-8.738 11.881,-4.543 12.23,1.747 0.351,6.29 9.929,23.033 18.286,28.12 11.5,7 34.253,-1.281 36,-20.5 1.746,-19.219 -12.698,-28.238 -26.678,-28.238 -13.98,0 -30.053,6.641 -28.307,-4.193 1.747,-10.834 20.044,-3.569 25.984,-3.569 11.5,0 25.039,-8.662 23.29,-28.581 -1.748,-19.92 -19.221,-29.355 -31.802,-23.415 -12.581,5.94 -20.264,20.968 -19.566,29.356 0.698,8.388 -4.546,12.581 -10.136,9.435 z"
         id="path340"
         style="fill:#d54140" />
      <circle
         cx="82.539001"
         cy="79.051003"
         r="19.620001"
         id="circle342"
         style="fill:#ffcf09" />
      <circle
         cx="82.873001"
         cy="79.551003"
         r="16"
         id="circle344"
         style="fill:#ffe36b" />
      <path
         d="m 31.039,70.551 c 0,0 -20.5,-4.5 -13,-27 5.452,-16.356 21.5,-9.5 25,-4 3.5,5.5 -12.5,-10.5 -21,6.5 -7.145,14.29 9,24.5 9,24.5 z"
         id="path346"
         style="fill:#dd7273" />
      <path
         d="m 45.028,123.789 c 0,0 -19.369,15.535 -29.489,-7.238 -7.356,-16.554 8.856,-30.231 15.5,-28.5 6.644,1.731 -15.884,4.042 -10.453,23.286 4.565,16.176 24.442,12.452 24.442,12.452 z"
         id="path348"
         style="fill:#dd7273" />
      <path
         d="m 58.665,29.784 c 0,0 -7.792,-19.488 15.036,-25.921 C 90.296,-0.814 97.124,16.566 94.539,22.551 91.955,28.536 92.719,6.06 73.88,8.576 58.043,10.692 58.665,29.784 58.665,29.784 z"
         id="path350"
         style="fill:#dd7273" />
      <path
         d="m 151.039,90.551 c 0,0 14.376,16.478 -2.587,33.052 -12.332,12.05 -27.318,2.94 -27.913,-3.552 -0.596,-6.492 10.164,10.726 25.5,-0.5 12.892,-9.438 5,-29 5,-29 z"
         id="path352"
         style="fill:#dd7273" />
      <path
         d="m 108.957,123.16 c 0,0 10.455,21.433 -14.917,30.391 -18.445,6.513 -30.489,-13.392 -27.5,-20 2.988,-6.608 4.257,18.006 25.135,13.584 17.55,-3.717 17.282,-23.975 17.282,-23.975 z"
         id="path354"
         style="fill:#dd7273" />
      <path
         d="m 124.321,22.104 c 0,0 20.848,-4.037 26.277,24.125 3.949,20.473 -13.941,25.862 -20.059,21.322 -6.118,-4.54 16.673,0.196 15.115,-22.326 -1.31,-18.934 -21.333,-23.121 -21.333,-23.121 z"
         id="path356"
         style="fill:#dd7273" />
    </g>
  </g>
</svg>
