<?xml version="1.0" encoding="UTF-8" standalone="no"?>
<!-- Created with Inkscape (http://www.inkscape.org/) -->

<svg
   xmlns:dc="http://purl.org/dc/elements/1.1/"
   xmlns:cc="http://creativecommons.org/ns#"
   xmlns:rdf="http://www.w3.org/1999/02/22-rdf-syntax-ns#"
   xmlns:svg="http://www.w3.org/2000/svg"
   xmlns="http://www.w3.org/2000/svg"
   version="1.1"
   width="32"
   height="32"
   id="svg3695">
  <defs
     id="defs3697" />
  <metadata
     id="metadata3700">
    <rdf:RDF>
      <cc:Work
         rdf:about="">
        <dc:format>image/svg+xml</dc:format>
        <dc:type
           rdf:resource="http://purl.org/dc/dcmitype/StillImage" />
        <dc:title></dc:title>
      </cc:Work>
    </rdf:RDF>
  </metadata>
  <g
     id="layer1">
    <g
       transform="matrix(0.2088556,0,0,0.2088556,-84.889982,-75.025682)"
       id="g236">
      <path
         d="m 485.849,427.751 c 0,0 14.523,-24.818 28.384,-38.968 13.86,-14.148 24.908,-14.44 27.44,-12.675 2.532,1.769 0.986,4.984 3.389,5.101 2.401,0.118 0.804,4.566 0.804,4.566 0,0 2.166,0.93 1.169,5.408 -0.997,4.478 -10.268,23.786 -21.22,31.08 -10.952,7.294 -32.932,18.999 -32.932,18.999 0,0 -5.169,-1.074 -7.034,-13.511 z"
         id="path238"
         style="fill:#5d1119" />
      <path
         d="m 495.993,432.502 c 0,0 20.055,8.403 33.05,19.182 12.997,10.779 16.279,22.557 15.85,25.785 -0.429,3.23 -2.935,2.505 -2.335,5.115 0.596,2.613 -2.718,2.186 -2.718,2.186 0,0 0.011,2.595 -3.154,2.821 -3.163,0.228 -18.197,-4.132 -25.964,-13.774 -7.764,-9.646 -21.46,-29.85 -21.46,-29.85 0,0 -0.754,-5.859 6.731,-11.465 z"
         id="path240"
         style="fill:#5d1119" />
      <path
         d="m 488.644,444.699 c 0,0 -13.074,20.553 -26.121,32.56 -13.047,12.009 -24.104,12.819 -26.749,11.545 -2.645,-1.281 -1.289,-3.926 -3.701,-3.893 -2.417,0.03 -1.082,-3.601 -1.082,-3.601 0,0 -2.228,-0.627 -1.496,-4.249 0.73,-3.624 8.868,-19.509 19.409,-25.899 10.545,-6.385 31.878,-16.872 31.878,-16.872 0,0 5.246,0.59 7.862,10.409 z"
         id="path242"
         style="fill:#5d1119" />
      <path
         d="m 489.562,443.659 c 0,0 -21.606,-10.875 -36.041,-24.793 -14.433,-13.922 -18.814,-29.104 -18.628,-33.261 0.188,-4.161 2.859,-3.225 2.022,-6.586 -0.833,-3.37 2.659,-2.813 2.659,-2.813 0,0 -0.222,-3.342 3.062,-3.625 3.281,-0.286 19.323,5.365 28.208,17.811 8.884,12.444 24.813,38.509 24.813,38.509 0,0 1.264,7.552 -6.095,14.758 z"
         id="path244"
         style="fill:#5d1119" />
      <path
         d="m 486.504,430.502 c 0,0 9.721,-16.61 18.997,-26.081 9.277,-9.469 16.671,-9.664 18.365,-8.482 1.695,1.184 0.661,3.336 2.269,3.413 1.606,0.079 0.538,3.057 0.538,3.057 0,0 1.45,0.622 0.782,3.62 -0.668,2.996 -6.872,15.92 -14.202,20.802 -7.331,4.882 -22.041,12.716 -22.041,12.716 0,0 -3.459,-0.72 -4.708,-9.045 z"
         id="path246"
         style="fill:#bb1b1d" />
      <path
         d="m 493.771,434.24 c 0,0 13.423,5.624 22.12,12.838 8.698,7.214 10.896,15.097 10.608,17.257 -0.287,2.163 -1.964,1.677 -1.563,3.425 0.398,1.749 -1.818,1.462 -1.818,1.462 0,0 0.008,1.737 -2.111,1.889 -2.117,0.152 -12.179,-2.765 -17.376,-9.219 -5.196,-6.456 -14.363,-19.979 -14.363,-19.979 0,0 -0.507,-3.922 4.503,-7.673 z"
         id="path248"
         style="fill:#bb1b1d" />
      <path
         d="m 486.512,442.729 c 0,0 -8.749,13.756 -17.481,21.792 -8.732,8.037 -16.134,8.58 -17.903,7.728 -1.77,-0.858 -0.863,-2.627 -2.478,-2.605 -1.617,0.021 -0.725,-2.41 -0.725,-2.41 0,0 -1.489,-0.42 -1.001,-2.845 0.488,-2.425 5.937,-13.057 12.991,-17.334 7.057,-4.272 21.335,-11.292 21.335,-11.292 0,0 3.514,0.394 5.262,6.966 z"
         id="path250"
         style="fill:#bb1b1d" />
      <path
         d="m 488.989,441.15 c 0,0 -14.461,-7.279 -24.122,-16.595 -9.66,-9.317 -12.592,-19.479 -12.467,-22.261 0.124,-2.785 1.914,-2.158 1.353,-4.408 -0.557,-2.256 1.78,-1.883 1.78,-1.883 0,0 -0.148,-2.236 2.049,-2.426 2.197,-0.192 12.934,3.591 18.88,11.92 5.946,8.329 16.608,25.773 16.608,25.773 0,0 0.844,5.057 -4.081,9.88 z"
         id="path252"
         style="fill:#bb1b1d" />
      <path
         d="m 486.279,440.84 c 0,0 -27.659,7.866 -47.456,8.489 -19.796,0.622 -27.974,-6.812 -28.58,-9.839 -0.604,-3.029 2.737,-4.281 1.083,-6.027 -1.651,-1.747 2.58,-3.853 2.58,-3.853 0,0 -0.92,-2.17 2.898,-4.713 3.818,-2.543 23.872,-10.066 36.826,-7.753 12.954,2.313 36.921,9.073 36.921,9.073 0,0 2.988,4.354 -4.272,14.623 z"
         id="path254"
         style="fill:#98141b" />
      <path
         d="m 482.332,431.397 c 0,0 -5.714,-20.979 -5.211,-37.855 0.501,-16.878 7.766,-26.711 10.575,-28.357 2.81,-1.65 3.78,0.771 5.47,-1.308 1.693,-2.078 3.395,0.798 3.395,0.798 0,0 2.039,-1.604 4.165,0.751 2.125,2.354 7.938,16.888 5.115,28.942 -2.828,12.055 -10.329,35.282 -10.329,35.282 0,0 -4.156,4.2 -13.18,1.747 z"
         id="path256"
         style="fill:#98141b" />
      <path
         d="m 489.072,424.866 c 0,0 23.31,-7.072 41.03,-7.678 17.723,-0.609 26.639,5.982 27.812,8.672 1.172,2.695 -1.579,3.817 0.272,5.365 1.854,1.551 -1.526,3.436 -1.526,3.436 0,0 1.282,1.928 -1.634,4.198 -2.915,2.273 -19.438,9.02 -31.6,6.999 -12.158,-2.026 -35.174,-7.973 -35.174,-7.973 0,0 -3.595,-3.868 0.82,-13.019 z"
         id="path258"
         style="fill:#98141b" />
      <path
         d="m 494.605,426.787 c 0,0 8.072,22.802 8.861,42.838 0.785,20.038 -6.557,34.029 -9.568,36.901 -3.015,2.875 -4.296,0.35 -6.018,3.355 -1.73,3.009 -3.866,0.19 -3.866,0.19 0,0 -2.153,2.566 -4.72,0.498 -2.566,-2.064 -10.236,-17.245 -8.038,-32.378 2.198,-15.131 8.735,-44.97 8.735,-44.97 0,0 4.317,-6.324 14.614,-6.434 z"
         id="path260"
         style="fill:#98141b" />
      <path
         d="m 487.71,438.401 c 0,0 -18.512,5.264 -31.762,5.682 -13.25,0.416 -18.723,-4.56 -19.128,-6.585 -0.405,-2.028 1.831,-2.866 0.724,-4.034 -1.104,-1.169 1.728,-2.579 1.728,-2.579 0,0 -0.617,-1.452 1.94,-3.154 2.555,-1.701 15.978,-6.737 24.646,-5.189 8.671,1.55 24.711,6.073 24.711,6.073 0,0 1.999,2.912 -2.859,9.786 z"
         id="path262"
         style="fill:#e42a28" />
      <path
         d="m 485.069,432.082 c 0,0 -3.825,-14.043 -3.489,-25.338 0.336,-11.295 5.197,-17.878 7.078,-18.979 1.881,-1.104 2.53,0.517 3.661,-0.875 1.134,-1.391 2.272,0.534 2.272,0.534 0,0 1.364,-1.074 2.787,0.502 1.423,1.576 5.313,11.303 3.424,19.371 -1.893,8.068 -6.913,23.615 -6.913,23.615 0,0 -2.781,2.81 -8.82,1.17 z"
         id="path264"
         style="fill:#e42a28" />
      <path
         d="m 489.405,427.749 c 0,0 15.602,-4.733 27.461,-5.14 11.861,-0.406 17.829,4.006 18.616,5.805 0.782,1.804 -1.057,2.555 0.182,3.59 1.239,1.04 -1.021,2.301 -1.021,2.301 0,0 0.855,1.289 -1.095,2.81 -1.95,1.521 -13.011,6.037 -21.149,4.685 -8.138,-1.356 -23.543,-5.336 -23.543,-5.336 0,0 -2.406,-2.59 0.549,-8.715 z"
         id="path266"
         style="fill:#e42a28" />
      <path
         d="m 493.283,428.995 c 0,0 5.402,15.262 5.931,28.672 0.526,13.411 -4.389,22.775 -6.404,24.697 -2.018,1.925 -2.876,0.233 -4.027,2.246 -1.159,2.014 -2.588,0.127 -2.588,0.127 0,0 -1.44,1.718 -3.157,0.334 -1.72,-1.382 -6.853,-11.543 -5.381,-21.67 1.471,-10.128 5.845,-30.099 5.845,-30.099 0,0 2.889,-4.234 9.781,-4.307 z"
         id="path268"
         style="fill:#e42a28" />
      <path
         d="m 489.387,435.03 c 0,0 3.148,-4.71 6.153,-7.396 3.005,-2.685 5.399,-2.74 5.948,-2.405 0.55,0.336 0.215,0.946 0.735,0.968 0.521,0.022 0.174,0.867 0.174,0.867 0,0 0.47,0.177 0.254,1.026 -0.217,0.85 -2.227,4.514 -4.601,5.898 -2.374,1.384 -7.139,3.605 -7.139,3.605 0,0 -1.12,-0.203 -1.524,-2.563 z"
         id="path270"
         style="fill:#380e0e" />
      <path
         d="m 491.421,435.805 c 0,0 4.042,2.124 6.495,4.502 2.453,2.378 2.791,4.679 2.599,5.273 -0.192,0.594 -0.707,0.391 -0.659,0.897 0.046,0.507 -0.651,0.337 -0.651,0.337 0,0 -0.079,0.487 -0.765,0.443 -0.686,-0.043 -3.775,-1.271 -5.143,-3.293 -1.365,-2.022 -3.676,-6.19 -3.676,-6.19 0,0 0.02,-1.12 1.8,-1.969 z"
         id="path272"
         style="fill:#380e0e" />
      <path
         d="m 491.415,437.51 c 0,0 -2.022,4.271 -4.358,6.942 -2.336,2.673 -4.667,3.187 -5.279,3.035 -0.612,-0.152 -0.423,-0.691 -0.936,-0.606 -0.516,0.085 -0.366,-0.638 -0.366,-0.638 0,0 -0.499,-0.044 -0.479,-0.745 0.02,-0.701 1.163,-3.938 3.175,-5.478 2.012,-1.539 6.175,-4.198 6.175,-4.198 0,0 1.142,-0.061 2.068,1.688 z"
         id="path274"
         style="fill:#380e0e" />
      <path
         d="m 490.192,438.048 c 0,0 -4.685,-2.063 -7.813,-4.705 -3.128,-2.642 -4.079,-5.522 -4.038,-6.312 0.04,-0.79 0.62,-0.612 0.438,-1.25 -0.181,-0.64 0.576,-0.534 0.576,-0.534 0,0 -0.048,-0.634 0.664,-0.688 0.711,-0.055 4.188,1.018 6.115,3.38 1.926,2.361 5.379,7.308 5.379,7.308 0,0 0.274,1.434 -1.321,2.801 z"
         id="path276"
         style="fill:#380e0e" />
      <path
         d="m 487.687,438.614 c 0,0 -1.026,-5.016 -0.681,-9.096 0.345,-4.08 2.146,-6.521 2.812,-6.944 0.668,-0.425 0.858,0.151 1.273,-0.365 0.417,-0.518 0.769,0.161 0.769,0.161 0,0 0.49,-0.406 0.945,0.144 0.456,0.549 1.593,4.006 0.78,6.943 -0.812,2.937 -2.851,8.615 -2.851,8.615 0,0 -1.009,1.052 -3.047,0.542 z"
         id="path278"
         style="fill:#380e0e" />
      <path
         d="m 492.211,435.885 c 0,0 -4.294,2.789 -8.218,3.958 -3.923,1.17 -6.854,0.386 -7.492,-0.08 -0.64,-0.467 -0.172,-0.854 -0.805,-1.052 -0.635,-0.199 -0.131,-0.774 -0.131,-0.774 0,0 -0.558,-0.309 -0.212,-0.933 0.345,-0.625 3.147,-2.946 6.178,-3.264 3.031,-0.316 9.062,-0.495 9.062,-0.495 0,0 1.347,0.557 1.618,2.64 z"
         id="path280"
         style="fill:#380e0e" />
      <path
         d="m 489.77,434.774 c 0,0 4.968,-1.241 9.059,-1.071 4.091,0.17 6.607,1.863 7.059,2.512 0.454,0.649 -0.114,0.864 0.42,1.256 0.534,0.396 -0.129,0.775 -0.129,0.775 0,0 0.428,0.473 -0.103,0.95 -0.528,0.479 -3.934,1.763 -6.902,1.078 -2.971,-0.686 -8.731,-2.478 -8.731,-2.478 0,0 -1.094,-0.964 -0.673,-3.022 z"
         id="path282"
         style="fill:#380e0e" />
    </g>
  </g>
</svg>
