<?xml version="1.0" encoding="UTF-8" standalone="no"?>
<!-- Created with Inkscape (http://www.inkscape.org/) -->

<svg
   xmlns:dc="http://purl.org/dc/elements/1.1/"
   xmlns:cc="http://creativecommons.org/ns#"
   xmlns:rdf="http://www.w3.org/1999/02/22-rdf-syntax-ns#"
   xmlns:svg="http://www.w3.org/2000/svg"
   xmlns="http://www.w3.org/2000/svg"
   version="1.1"
   width="32"
   height="32"
   id="svg3695">
  <defs
     id="defs3697" />
  <metadata
     id="metadata3700">
    <rdf:RDF>
      <cc:Work
         rdf:about="">
        <dc:format>image/svg+xml</dc:format>
        <dc:type
           rdf:resource="http://purl.org/dc/dcmitype/StillImage" />
        <dc:title></dc:title>
      </cc:Work>
    </rdf:RDF>
  </metadata>
  <g
     id="layer1">
    <g
       transform="matrix(0.19896591,0,0,0.19896591,-117.92069,-32.595766)"
       id="g392">
      <path
         d="m 674.649,242.453 c 0,0 21.592,-10.127 39.439,-14.484 17.846,-4.36 28.892,-1.72 30.893,-0.097 2.002,1.627 -0.463,3.024 1.887,3.697 2.349,0.676 -0.524,2.745 -0.524,2.745 0,0 1.882,1.067 -0.405,3.307 -2.285,2.238 -17.07,10.632 -30.047,11.914 -12.978,1.282 -38.172,2.222 -38.172,2.222 0,0 -4.819,-1.911 -3.071,-9.304 z"
         id="path394"
         style="fill:#f7c426" />
      <path
         d="m 679.211,243.943 c 0,0 20.247,12.603 33.616,25.203 13.37,12.599 17.168,23.302 16.894,25.864 -0.276,2.564 -2.788,1.258 -2.075,3.596 0.712,2.338 -2.588,1.055 -2.588,1.055 0,0 0.129,2.158 -2.993,1.459 -3.123,-0.699 -18.212,-8.535 -26.35,-18.723 -8.138,-10.19 -22.639,-30.816 -22.639,-30.816 0,0 -1.019,-5.081 6.135,-7.638 z"
         id="path396"
         style="fill:#f7c426" />
      <path
         d="m 673.347,246.672 c 0,0 4.688,23.384 4.664,41.756 -0.021,18.371 -5.219,28.469 -7.273,30.023 -2.056,1.557 -2.825,-1.17 -4.04,0.953 -1.216,2.119 -2.541,-1.166 -2.541,-1.166 0,0 -1.483,1.572 -3.113,-1.18 -1.629,-2.754 -6.256,-19.113 -4.407,-32.023 1.85,-12.908 6.945,-37.601 6.945,-37.601 0,0 3.001,-4.223 9.765,-0.762 z"
         id="path398"
         style="fill:#f7c426" />
      <path
         d="m 674.933,242.622 c 0,0 -13.754,19.483 -27.107,32.102 -13.352,12.619 -24.258,15.789 -26.8,15.369 -2.543,-0.424 -1.093,-2.857 -3.47,-2.281 -2.374,0.576 -0.902,-2.645 -0.902,-2.645 0,0 -2.161,0.004 -1.283,-3.072 0.879,-3.076 9.574,-17.687 20.218,-25.222 10.644,-7.534 32.074,-20.816 32.074,-20.816 0,0 5.13,-0.725 7.27,6.565 z"
         id="path400"
         style="fill:#f7c426" />
      <path
         d="m 668.091,244.086 c 0,0 -23.604,3.411 -41.947,2.391 -18.343,-1.018 -28.143,-6.756 -29.585,-8.892 -1.442,-2.138 1.321,-2.759 -0.73,-4.086 -2.05,-1.329 1.3,-2.474 1.3,-2.474 0,0 -1.49,-1.567 1.348,-3.046 2.839,-1.477 19.426,-5.208 32.215,-2.662 12.789,2.547 37.169,8.976 37.169,8.976 0,0 4.052,3.228 0.23,9.793 z"
         id="path402"
         style="fill:#f7c426" />
      <path
         d="m 662.642,243.611 c 0,0 -14.394,-19.015 -22.365,-35.567 -7.974,-16.55 -7.688,-27.903 -6.514,-30.197 1.174,-2.295 3.053,-0.177 3.224,-2.615 0.173,-2.437 2.794,-0.057 2.794,-0.057 0,0 0.652,-2.062 3.318,-0.292 2.665,1.771 13.948,14.489 17.898,26.916 3.951,12.428 10.107,36.877 10.107,36.877 0,0 -0.867,5.11 -8.462,4.935 z"
         id="path404"
         style="fill:#f7c426" />
      <path
         d="m 671.103,241.256 c 0,0 4.314,-23.456 11.146,-40.511 6.83,-17.054 15.4,-24.506 17.885,-25.189 2.486,-0.683 2.19,2.135 4.105,0.615 1.914,-1.519 1.928,2.022 1.928,2.022 0,0 1.961,-0.91 2.454,2.251 0.493,3.161 -1.274,20.071 -7.776,31.375 -6.504,11.303 -20.389,32.348 -20.389,32.348 0,0 -4.353,2.81 -9.353,-2.911 z"
         id="path406"
         style="fill:#f7c426" />
      <path
         d="m 675.835,238.973 c 0,0 15.217,-18.362 29.506,-29.911 14.286,-11.549 25.403,-13.868 27.906,-13.252 2.503,0.619 0.869,2.933 3.283,2.541 2.411,-0.391 0.695,2.707 0.695,2.707 0,0 2.154,0.163 1.041,3.163 -1.113,2.999 -10.911,16.894 -22.105,23.584 -11.193,6.688 -33.586,18.275 -33.586,18.275 0,0 -5.171,0.328 -6.74,-7.107 z"
         id="path408"
         style="fill:#f8e823;stroke:#ffffff" />
      <path
         d="m 680.841,244.737 c 0,0 23.844,-0.462 41.92,2.821 18.076,3.281 27.091,10.189 28.258,12.487 1.165,2.3 -1.654,2.573 0.219,4.145 1.869,1.573 -1.598,2.295 -1.598,2.295 0,0 1.285,1.74 -1.715,2.854 -2.998,1.114 -19.921,2.763 -32.296,-1.348 -12.375,-4.111 -35.771,-13.509 -35.771,-13.509 0,0 -3.624,-3.704 0.983,-9.745 z"
         id="path410"
         style="fill:#f8e823;stroke:#ffffff" />
      <path
         d="m 677.628,246.741 c 0,0 12.225,20.476 18.337,37.803 6.114,17.322 4.587,28.578 3.169,30.729 -1.418,2.152 -3.055,-0.158 -3.49,2.246 -0.438,2.404 -2.783,-0.25 -2.783,-0.25 0,0 -0.875,1.979 -3.33,-0.072 -2.455,-2.053 -12.279,-15.93 -14.846,-28.713 -2.566,-12.785 -6.009,-37.764 -6.009,-37.764 0,0 1.421,-4.984 8.952,-3.979 z"
         id="path412"
         style="fill:#f8e823;stroke:#ffffff" />
      <path
         d="m 673.672,250.478 c 0,0 -7.084,22.772 -15.903,38.892 -8.816,16.115 -18.215,22.49 -20.764,22.873 -2.549,0.381 -1.92,-2.381 -4.002,-1.1 -2.082,1.277 -1.674,-2.238 -1.674,-2.238 0,0 -2.055,0.668 -2.167,-2.529 -0.111,-3.197 3.662,-19.775 11.468,-30.221 7.805,-10.447 24.104,-29.684 24.104,-29.684 0,0 4.658,-2.269 8.938,4.007 z"
         id="path414"
         style="fill:#f8e823;stroke:#ffffff" />
      <path
         d="m 670.225,247.109 c 0,0 -20.198,12.682 -37.382,19.181 -17.183,6.501 -28.468,5.225 -30.651,3.857 -2.185,-1.37 0.092,-3.059 -2.323,-3.44 -2.413,-0.385 0.186,-2.789 0.186,-2.789 0,0 -1.996,-0.829 0,-3.33 1.996,-2.501 15.648,-12.633 28.373,-15.485 12.725,-2.852 37.617,-6.854 37.617,-6.854 0,0 5.015,1.308 4.18,8.86 z"
         id="path416"
         style="fill:#f8e823;stroke:#ffffff" />
      <path
         d="m 665.278,242.801 c 0,0 -21.91,-9.418 -37.02,-19.868 -15.111,-10.447 -20.473,-20.46 -20.586,-23.033 -0.113,-2.576 2.566,-1.662 1.51,-3.867 -1.054,-2.203 2.401,-1.431 2.401,-1.431 0,0 -0.452,-2.114 2.74,-1.893 3.192,0.224 19.286,5.703 28.862,14.554 9.576,8.852 27.01,27.065 27.01,27.065 0,0 1.773,4.871 -4.917,8.473 z"
         id="path418"
         style="fill:#f8e823;stroke:#ffffff" />
      <path
         d="m 669.179,242.829 c 0,0 -5.845,-23.121 -6.736,-41.472 -0.894,-18.35 3.795,-28.693 5.77,-30.35 1.977,-1.656 2.881,1.028 3.988,-1.15 1.109,-2.178 2.596,1.035 2.596,1.035 0,0 1.404,-1.644 3.168,1.025 1.765,2.669 7.199,18.778 5.996,31.763 -1.205,12.984 -5.064,37.9 -5.064,37.9 0,0 -2.791,4.369 -9.718,1.249 z"
         id="path420"
         style="fill:#f8e823;stroke:#ffffff" />
      <circle
         cx="674.06799"
         cy="245.177"
         r="18.603001"
         id="circle422"
         style="fill:#ffcf09;stroke:#ffffff" />
      <circle
         cx="674.64899"
         cy="245.177"
         r="13.371"
         id="circle424"
         style="fill:#ffe36b" />
    </g>
  </g>
</svg>
