<?xml version="1.0" encoding="UTF-8" standalone="no"?>
<svg
   xmlns:dc="http://purl.org/dc/elements/1.1/"
   xmlns:cc="http://creativecommons.org/ns#"
   xmlns:rdf="http://www.w3.org/1999/02/22-rdf-syntax-ns#"
   xmlns:svg="http://www.w3.org/2000/svg"
   xmlns="http://www.w3.org/2000/svg"
   version="1.1"
   id="svg2"
   viewBox="0 0 1000 1000"
   height="1000"
   width="1000">
  <defs
     id="defs4" />
  <metadata
     id="metadata7">
    <rdf:RDF>
      <cc:Work
         rdf:about="">
        <dc:format>image/svg+xml</dc:format>
        <dc:type
           rdf:resource="http://purl.org/dc/dcmitype/StillImage" />
        <dc:title></dc:title>
      </cc:Work>
    </rdf:RDF>
  </metadata>
  <g
     id="layer1">
    <path
       id="path3500"
       d="m 529.96849,998.22145 c -127.6848,-5.15164 -251.11687,-18.60717 -307.33308,-33.50296 -9.41781,-2.49541 -17.4231,-4.83672 -17.78933,-5.20294 -0.36623,-0.36623 19.57713,-0.23877 44.31841,0.28319 69.22103,1.46073 187.84992,-2.30305 302.43017,-9.59494 68.49366,-4.35899 94.77635,-9.22309 98.21198,-18.17586 4.29373,-11.18965 -21.8771,-22.83363 -58.89401,-26.20309 C 498.23848,897.38933 429.65617,883.42524 355.09204,857.80956 282.03634,832.71203 212.15664,797.34042 162.10553,760.1239 102.03489,715.45704 60.887602,666.42629 45.563226,621.25251 40.488823,606.29382 40.904725,574.96973 46.360946,561.18187 74.762666,489.41103 199.3371,441.00323 370.5999,435.18749 c 79.84774,-2.71152 150.27587,7.01649 211.81575,29.25709 1.9943,0.72085 -6.57212,-4.7312 -19.03649,-12.11573 -86.5473,-51.27379 -148.49857,-97.18128 -197.62904,-146.44808 -40.01488,-40.12566 -64.38631,-73.17773 -83.62005,-113.40256 -18.28247,-38.23615 -18.66102,-64.6559 -1.19749,-83.60156 25.60046,-27.773331 85.24632,-32.774308 189.79273,-15.913235 72.00234,11.612445 120.4765,18.673165 153.38932,22.342675 71.48348,7.96976 146.74107,9.37919 166.58888,3.11981 12.17664,-3.84011 19.24353,-10.90682 19.24353,-19.243354 0,-25.353886 -65.03028,-50.36711 -200.9666,-77.299757 -27.45878,-5.440266 -50.312,-10.278436 -50.78483,-10.751266 -0.47283,-0.47283 2.86073,-0.859724 7.4081,-0.859724 4.54736,0 57.10168,-2.5171682 116.78724,-5.5934651 67.73999,-3.4914738 116.0867,-5.1973247 128.6564,-4.53938731 C 895.12901,4.5405459 957.48821,58.655307 961.65702,130.83624 c 2.96099,51.27017 -25.48116,91.21543 -73.75101,103.579 -24.25068,6.21134 -51.53269,3.86187 -128.23905,-11.04388 -51.4899,-10.0054 -74.9008,-13.06212 -118.32884,-15.44966 -122.08535,-6.7119 -183.11289,6.74581 -183.11289,40.37985 0,3.38033 2.60908,11.36732 5.79815,17.74889 11.66719,23.34817 25.45034,35.04818 183.09894,155.42625 108.8356,83.10498 145.43027,111.96321 142.4118,112.30387 -2.23452,0.25219 -69.11062,2.90443 -148.61371,5.89388 -79.5031,2.98927 -150.482,6.27425 -157.73091,7.30004 -38.54491,5.45405 -89.8662,20.80344 -124.33077,37.1857 -101.8833,48.42865 -103.28438,103.87144 -3.97446,157.28094 50.7968,27.31882 132.5404,52.50373 271.94986,83.78667 82.41133,18.49295 143.18124,35.38648 179.96645,50.02953 67.44031,26.84562 94.23319,53.27987 76.36697,75.34407 -16.06281,19.83693 -72.23278,38.10326 -135.76898,44.15161 -57.42729,5.4669 -136.59534,6.7299 -217.43008,3.46845 z"
       style="fill:#000000" />
  </g>
</svg>
