<?xml version="1.0" encoding="UTF-8" standalone="no"?>
<!-- Created with Inkscape (http://www.inkscape.org/) -->

<svg
   xmlns:dc="http://purl.org/dc/elements/1.1/"
   xmlns:cc="http://creativecommons.org/ns#"
   xmlns:rdf="http://www.w3.org/1999/02/22-rdf-syntax-ns#"
   xmlns:svg="http://www.w3.org/2000/svg"
   xmlns="http://www.w3.org/2000/svg"
   xmlns:sodipodi="http://sodipodi.sourceforge.net/DTD/sodipodi-0.dtd"
   xmlns:inkscape="http://www.inkscape.org/namespaces/inkscape"
   width="1000"
   height="1000"
   viewBox="0 0 1000 1000"
   id="svg2"
   version="1.1"
   inkscape:version="0.91 r13725"
   sodipodi:docname="logo-elm.svg">
  <sodipodi:namedview
     id="base"
     pagecolor="#ffffff"
     bordercolor="#666666"
     borderopacity="1.0"
     inkscape:pageopacity="0.0"
     inkscape:pageshadow="2"
     inkscape:zoom="0.39539975"
     inkscape:cx="-372.69526"
     inkscape:cy="407.062"
     inkscape:document-units="px"
     inkscape:current-layer="svg2"
     showgrid="false"
     units="px"
     inkscape:window-width="1920"
     inkscape:window-height="1017"
     inkscape:window-x="-8"
     inkscape:window-y="-8"
     inkscape:window-maximized="1" />
  <defs
     id="defs4" />
  <metadata
     id="metadata7">
    <rdf:RDF>
      <cc:Work
         rdf:about="">
        <dc:format>image/svg+xml</dc:format>
        <dc:type
           rdf:resource="http://purl.org/dc/dcmitype/StillImage" />
        <dc:title></dc:title>
      </cc:Work>
    </rdf:RDF>
  </metadata>
  <g
     id="layer1"
     inkscape:groupmode="layer"
     inkscape:label="Layer 1">
    <path
       inkscape:connector-curvature="0"
       id="path3347"
       d="M 262.04774,764.97949 C 391.30411,635.71827 498.12088,529.9591 499.41834,529.9591 c 1.29745,0 108.11429,105.75917 237.37057,235.02039 L 971.80061,1000 499.41834,1000 27.036159,1000 262.04774,764.97949 Z M 0,499.40644 0,28.193493 235.60649,263.79996 471.21295,499.40644 235.60649,735.01293 0,970.6194 0,499.40644 Z m 894.83002,367.2094 -102.81132,-102.83138 103.40898,-103.389 103.40892,-103.389 0,206.22039 c 0,113.42122 -0.2688,206.22045 -0.5976,206.22045 -0.32857,0 -46.8626,-46.27429 -103.40898,-102.83146 z M 645.12814,616.9137 527.63251,499.40055 645.72438,381.30867 763.81626,263.2168 881.90813,381.30867 1000,499.40055 882.50461,616.9137 c -64.62262,64.63223 -118.03241,117.51314 -118.68835,117.51314 -0.65595,0 -54.06574,-52.88091 -118.68812,-117.51314 z M 391.30896,363.09462 283.21873,254.98523 l 215.62164,0 c 118.59179,0 215.6216,0.79755 215.6216,1.77234 0,1.92893 -211.96379,214.44643 -213.88769,214.44643 -0.6463,0 -49.81569,-48.64922 -109.26532,-108.10938 z M 779.09258,219.73218 560.53302,1.16321 l 219.15181,0 219.15177,0 0,218.56897 c 0,120.21293 -0.2665,218.56896 -0.5922,218.56896 -0.32574,0 -98.94406,-98.35603 -219.15182,-218.56896 z M 136.31183,108.09749 29.396915,1.16321 l 237.370595,0 237.3706,0 106.91489,106.93428 106.91501,106.93428 -237.37067,0 -237.3706,0 -106.91491,-106.93428 z"
       style="fill:#000000" />
  </g>
</svg>
