<?xml version="1.0" encoding="UTF-8" standalone="no"?>
<svg
   xmlns:dc="http://purl.org/dc/elements/1.1/"
   xmlns:cc="http://creativecommons.org/ns#"
   xmlns:rdf="http://www.w3.org/1999/02/22-rdf-syntax-ns#"
   xmlns:svg="http://www.w3.org/2000/svg"
   xmlns="http://www.w3.org/2000/svg"
   version="1.1"
   id="svg2"
   viewBox="0 0 1000 1000"
   height="1000"
   width="1000">
  <defs
     id="defs4" />
  <metadata
     id="metadata7">
    <rdf:RDF>
      <cc:Work
         rdf:about="">
        <dc:format>image/svg+xml</dc:format>
        <dc:type
           rdf:resource="http://purl.org/dc/dcmitype/StillImage" />
        <dc:title></dc:title>
      </cc:Work>
    </rdf:RDF>
  </metadata>
  <g
     id="layer1">
    <path
       id="path3513"
       d="M 8.1919152,832.79251 C 5.263466,829.92922 2.222105,825.88972 1.4336578,823.81585 0.61553083,821.66375 0,686.54732 0,509.07459 l 0,-310.97058 3.6423746,-5.48089 c 2.0032174,-3.01447 6.9027844,-7.15004 10.8879274,-9.19015 l 7.245553,-3.70928 162.915655,0.6901 c 170.22719,0.72108 175.86401,0.92946 227.24783,8.40038 54.33279,7.89968 101.04797,22.14043 142.9417,43.57465 17.66856,9.0398 45.62606,26.72686 58.04841,36.72377 6.67477,5.37153 7.49073,5.63731 10.48467,3.41501 37.37555,-27.74266 68.19361,-39.04226 110.70972,-40.59232 18.06912,-0.65877 27.47518,-0.20955 40.21438,1.9206 86.39563,14.44638 148.6708,86.0396 144.5737,166.20584 -1.91164,37.40434 -16.21222,70.81689 -42.42977,99.13501 -31.51811,34.04325 -83.83533,56.49077 -131.71788,56.51561 -8.66194,0 -12.72554,0.63117 -13.11291,2.02273 -0.30873,1.10896 -1.83178,7.82318 -3.38456,14.92049 -5.79204,26.47364 -23.65613,66.63428 -41.97364,94.36204 -35.6037,53.89411 -93.607,101.44903 -158.29048,129.77684 -34.10166,14.93468 -90.59123,31.57079 -123.13308,36.26228 -27.21611,3.92385 -73.07792,4.91344 -228.34026,4.92715 L 13.516676,838 8.1919152,832.79428 Z M 346.80065,710.66496 c 33.77922,-3.38945 70.63898,-11.41958 95.3839,-20.78013 28.06252,-10.61565 57.57757,-30.12762 79.82609,-52.77193 23.15524,-23.56712 38.21798,-50.0864 46.99202,-82.73373 3.80821,-14.16995 4.20262,-18.47544 4.30999,-47.05117 0.10646,-28.3391 -0.26582,-32.8917 -3.7596,-45.97125 -8.69322,-32.54474 -21.36926,-54.69562 -44.33516,-77.47431 -16.93957,-16.80148 -20.54141,-19.90663 -34.8579,-30.05112 -28.8983,-20.47699 -83.16951,-39.90172 -125.81605,-45.03205 -9.0063,-1.08345 -54.72468,-2.17737 -110.89556,-2.65342 l -95.5718,-0.81 0,204.45153 0,204.4514 85.89364,-0.93716 c 47.24151,-0.51537 93.5152,-1.70191 102.83043,-2.63666 z M 924.78697,264.75595 c -9.49426,-3.09671 -16.84345,-7.96232 -24.3859,-16.14491 -9.76905,-10.59816 -12.09735,-16.2009 -12.9074,-31.05987 -0.62822,-11.52396 -0.21621,-14.23557 3.34513,-22.01454 10.47488,-22.88016 37.16049,-36.37088 62.76136,-31.72856 19.62624,3.55892 35.18582,15.09309 42.80179,31.72856 3.56261,7.78178 3.97585,10.50468 3.36399,22.1631 -0.78499,14.95587 -4.31815,22.787 -15.15278,33.58556 -10.307,10.27269 -21.50309,14.70091 -38.48292,15.22058 -9.14297,0.27981 -17.12735,-0.37482 -21.34327,-1.74992 z"
       style="fill:#000000" />
  </g>
</svg>
